<svg width="48" height="48" viewBox="0 0 48 48" fill="none" xmlns="http://www.w3.org/2000/svg">
<path d="M31.3087 39.3988L21.8503 47.8882L13.3377 40.6351L8.09255 15.4966L24.9457 0.166246L36.4678 9.39743L39.9072 22.5024L31.3087 39.3988Z" fill="#E83D39"/>
<g clip-path="url(#paint0_diamond_2272_1912_clip_path)" data-figma-skip-parse="true"><g transform="matrix(-0.0013413 0.0342855 -0.022857 -0.000821611 23.9026 13.7143)"><rect x="0" y="0" width="1042.07" height="803.03" fill="url(#paint0_diamond_2272_1912)" opacity="0.7" shape-rendering="crispEdges"/><rect x="0" y="0" width="1042.07" height="803.03" transform="scale(1 -1)" fill="url(#paint0_diamond_2272_1912)" opacity="0.7" shape-rendering="crispEdges"/><rect x="0" y="0" width="1042.07" height="803.03" transform="scale(-1 1)" fill="url(#paint0_diamond_2272_1912)" opacity="0.7" shape-rendering="crispEdges"/><rect x="0" y="0" width="1042.07" height="803.03" transform="scale(-1)" fill="url(#paint0_diamond_2272_1912)" opacity="0.7" shape-rendering="crispEdges"/></g></g><path d="M31.3087 39.3988L21.8503 47.8882L13.3377 40.6351L8.09255 15.4966L24.9457 0.166246L36.4678 9.39743L39.9072 22.5024L31.3087 39.3988Z" data-figma-gradient-fill="{&#34;type&#34;:&#34;GRADIENT_DIAMOND&#34;,&#34;stops&#34;:[{&#34;color&#34;:{&#34;r&#34;:0.90980392694473267,&#34;g&#34;:0.24009811878204346,&#34;b&#34;:0.22352939844131470,&#34;a&#34;:1.0},&#34;position&#34;:0.156250},{&#34;color&#34;:{&#34;r&#34;:0.54901963472366333,&#34;g&#34;:0.0,&#34;b&#34;:0.7294117808341980,&#34;a&#34;:1.0},&#34;position&#34;:0.63020831346511841},{&#34;color&#34;:{&#34;r&#34;:0.32941177487373352,&#34;g&#34;:0.39607843756675720,&#34;b&#34;:1.0,&#34;a&#34;:1.0},&#34;position&#34;:1.0}],&#34;stopsVar&#34;:[],&#34;transform&#34;:{&#34;m00&#34;:-2.6826086044311523,&#34;m01&#34;:-45.714012145996094,&#34;m02&#34;:48.100917816162109,&#34;m10&#34;:68.570907592773438,&#34;m11&#34;:-1.6432214975357056,&#34;m12&#34;:-19.749576568603516},&#34;opacity&#34;:0.69999998807907104,&#34;blendMode&#34;:&#34;NORMAL&#34;,&#34;visible&#34;:true}"/>
<path fill-rule="evenodd" clip-rule="evenodd" d="M21.8535 48L13.2607 40.6786L8.00064 15.4684L24.9438 0.0561765L36.5461 9.35162L40 22.5118L31.3807 39.4488L21.8535 48ZM21.8505 47.7769L31.2401 39.3493L39.8179 22.4936L36.3929 9.44376L24.9511 0.27683L8.1879 15.5253L13.4181 40.5921L21.8505 47.7769Z" fill="#F8F9FA" fill-opacity="0.2"/>
<path d="M36.9852 16.0736L39.8228 22.5024L36.3833 9.23261L24.7753 0.0838464L30.5363 11.6228L36.9852 16.0736Z" fill="#F8F9FA" fill-opacity="0.6"/>
<path fill-rule="evenodd" clip-rule="evenodd" d="M39.9058 22.4827L39.7431 22.5347L36.915 16.1271L30.4678 11.6775L24.6973 0.119535L24.8294 0.0202917L36.4595 9.18638L39.9058 22.4827ZM39.4748 21.5037L36.3063 9.27907L25.0198 0.38376L30.6039 11.5684L37.0546 16.0203L39.4748 21.5037Z" fill="#F8F9FA" fill-opacity="0.2"/>
<path d="M21.5936 20.6072L30.5361 11.6233L24.7751 0.166691L16.6065 11.9529L21.5936 20.6072Z" fill="#F8F9FA" fill-opacity="0.3"/>
<path fill-rule="evenodd" clip-rule="evenodd" d="M21.5747 20.7446L16.5057 11.9483L24.7867 -0.000110126L30.6392 11.6382L21.5747 20.7446ZM30.4326 11.607L24.7629 0.33216L16.7067 11.9562L21.612 20.4684L30.4326 11.607Z" fill="#F8F9FA" fill-opacity="0.2"/>
<path fill-rule="evenodd" clip-rule="evenodd" d="M21.8525 47.9065L13.26 40.6787L12.5666 37.2722L12.5665 37.2718L8 15.4683L12.7963 11.1215L16.6623 11.8796L21.6793 20.5854L21.8525 47.9065ZM21.6782 47.5406L21.5076 20.6284L16.5502 12.0258L12.8495 11.3002L8.18736 15.5253L12.7352 37.2398L12.7353 37.2402L13.4176 40.5919L21.6782 47.5406Z" fill="#F8F9FA" fill-opacity="0.2"/>
<path d="M21.9362 47.7234L21.7643 39.9758L21.5923 20.6068L30.5348 11.6229L36.9837 16.0736L37.5856 13.5185L39.9072 22.5025L31.3087 39.3988L21.9362 47.7234Z" fill="#F8F9FA" fill-opacity="0.2"/>
<path fill-rule="evenodd" clip-rule="evenodd" d="M21.8561 47.9087L21.6801 39.9767L21.5078 20.5743L30.5261 11.5142L36.9303 15.9341L37.5035 13.5006L37.6709 13.4989L40 22.5119L31.3807 39.449L21.8561 47.9087ZM31.2402 39.349L39.8181 22.4934L37.5913 13.8765L37.0408 16.2135L30.5471 11.7319L21.6804 20.6397L21.852 39.9742L21.852 39.9753L22.0199 47.5385L31.2402 39.349Z" fill="#F8F9FA" fill-opacity="0.2"/>
<defs>
<clipPath id="paint0_diamond_2272_1912_clip_path"><path d="M31.3087 39.3988L21.8503 47.8882L13.3377 40.6351L8.09255 15.4966L24.9457 0.166246L36.4678 9.39743L39.9072 22.5024L31.3087 39.3988Z"/></clipPath><linearGradient id="paint0_diamond_2272_1912" x1="0" y1="0" x2="500" y2="500" gradientUnits="userSpaceOnUse">
<stop offset="0.15625" stop-color="#E83D39"/>
<stop offset="0.630208" stop-color="#8C00BA"/>
<stop offset="1" stop-color="#5465FF"/>
</linearGradient>
</defs>
</svg>
